<svg width="369" height="59" viewBox="0 0 369 59" fill="none" xmlns="http://www.w3.org/2000/svg">
<path d="M29.2622 19.08C29.4956 18.52 29.6122 18.0767 29.6122 17.75C29.6122 17.1433 29.4722 16.5367 29.1922 15.93C25.5056 15.3233 21.8189 15.02 18.1322 15.02C14.0256 15.02 10.4556 15.44 7.42225 16.28C7.14225 16.8867 7.00225 17.4933 7.00225 18.1C7.00225 18.7533 7.14225 19.4067 7.42225 20.06C10.7356 19.36 14.3756 18.9633 18.3422 18.87L20.7222 18.94L6.30225 47.92C6.06891 48.48 5.95225 48.9 5.95225 49.18C5.95225 49.7867 6.13891 50.4167 6.51225 51.07C9.77891 51.6767 13.0222 51.98 16.2422 51.98C21.1422 51.98 25.9956 51.4433 30.8022 50.37C31.0822 49.81 31.2222 49.2267 31.2222 48.62C31.2222 47.92 31.0356 47.15 30.6622 46.31C26.5089 47.2433 21.4922 47.7567 15.6122 47.85H14.7022L29.2622 19.08ZM65.2614 46.31C63.8147 46.6833 61.4814 47.1267 58.2614 47.64C55.0881 48.1533 52.5681 48.41 50.7014 48.41C48.6014 48.41 47.2014 48.13 46.5014 47.57C45.8481 47.01 45.5214 45.8433 45.5214 44.07V36.09C49.7681 35.81 54.4814 35.2733 59.6614 34.48C61.8081 34.0133 63.3714 33.2433 64.3514 32.17C65.3314 31.05 65.8214 29.51 65.8214 27.55V22.58C65.8214 20.5733 65.5414 19.0333 64.9814 17.96C64.4214 16.8867 63.4881 16.14 62.1814 15.72C60.9214 15.2533 59.1014 15.02 56.7214 15.02C50.0014 15.02 45.1481 15.58 42.1614 16.7C39.0814 17.8667 37.5414 19.8967 37.5414 22.79V46.8C37.5414 48.62 38.1014 49.9267 39.2214 50.72C40.3881 51.5133 42.2314 51.91 44.7514 51.91C52.2181 51.91 59.0781 51.0933 65.3314 49.46C65.5181 49.1333 65.6114 48.6667 65.6114 48.06C65.6114 47.36 65.4947 46.7767 65.2614 46.31ZM45.5214 23.07C45.4281 21.2033 45.9647 19.8967 47.1314 19.15C48.2981 18.3567 50.5147 17.96 53.7814 17.96C55.3214 17.96 56.3714 18.3333 56.9314 19.08C57.5381 19.78 57.8414 21.11 57.8414 23.07V27.34C57.8414 28.8333 57.5381 29.86 56.9314 30.42C56.3247 30.98 55.0647 31.47 53.1514 31.89C51.1914 32.2633 48.6481 32.59 45.5214 32.87V23.07ZM109.125 50.58C109.265 50.16 109.335 49.7633 109.335 49.39C109.335 48.83 109.242 48.3867 109.055 48.06H104.155C103.688 48.06 103.455 46.8233 103.455 44.35V4.1C103.502 3.12 103.432 2.44333 103.245 2.07C103.105 1.65 102.755 1.39333 102.195 1.3C101.635 1.16 100.655 1.09 99.2551 1.09C96.0351 1.09 92.8851 1.53333 89.8051 2.42C89.6651 2.84 89.5951 3.23666 89.5951 3.61C89.5951 4.17 89.6885 4.61333 89.8751 4.94L94.7051 4.8C95.2185 4.8 95.4751 6.08333 95.4751 8.65V15.02C89.4551 15.2067 84.2285 15.72 79.7951 16.56C75.6885 17.3067 73.6351 19.5233 73.6351 23.21V46.59C73.6351 48.5033 74.1718 49.88 75.2451 50.72C76.3185 51.5133 78.1385 51.91 80.7051 51.91C81.1718 51.91 81.9651 51.8633 83.0851 51.77C84.9518 51.5367 86.5618 51.2567 87.9151 50.93C89.5951 50.51 91.2518 50.0667 92.8851 49.6L95.4751 48.9C95.4285 49.88 95.4751 50.58 95.6151 51C95.8018 51.3733 96.1751 51.6067 96.7351 51.7C97.2951 51.84 98.2751 51.91 99.6751 51.91C102.895 51.91 106.045 51.4667 109.125 50.58ZM95.4751 45.75C90.8551 47.0567 87.5418 47.71 85.5351 47.71C82.9218 47.71 81.6151 46.7533 81.6151 44.84V23.28C81.6151 22.02 81.9185 21.11 82.5251 20.55C83.1785 19.99 84.4385 19.5233 86.3051 19.15C88.1251 18.7767 91.1818 18.4733 95.4751 18.24V45.75ZM149.799 50.58C149.939 50.16 150.009 49.7633 150.009 49.39C150.009 48.83 149.916 48.3867 149.729 48.06H144.829C144.362 48.06 144.129 46.8233 144.129 44.35V4.1C144.176 3.12 144.106 2.44333 143.919 2.07C143.779 1.65 143.429 1.39333 142.869 1.3C142.309 1.16 141.329 1.09 139.929 1.09C136.709 1.09 133.559 1.53333 130.479 2.42C130.339 2.84 130.269 3.23666 130.269 3.61C130.269 4.17 130.362 4.61333 130.549 4.94L135.379 4.8C135.892 4.8 136.149 6.08333 136.149 8.65V15.02C130.129 15.2067 124.902 15.72 120.469 16.56C116.362 17.3067 114.309 19.5233 114.309 23.21V46.59C114.309 48.5033 114.846 49.88 115.919 50.72C116.992 51.5133 118.812 51.91 121.379 51.91C121.846 51.91 122.639 51.8633 123.759 51.77C125.626 51.5367 127.236 51.2567 128.589 50.93C130.269 50.51 131.926 50.0667 133.559 49.6L136.149 48.9C136.102 49.88 136.149 50.58 136.289 51C136.476 51.3733 136.849 51.6067 137.409 51.7C137.969 51.84 138.949 51.91 140.349 51.91C143.569 51.91 146.719 51.4667 149.799 50.58ZM136.149 45.75C131.529 47.0567 128.216 47.71 126.209 47.71C123.596 47.71 122.289 46.7533 122.289 44.84V23.28C122.289 22.02 122.592 21.11 123.199 20.55C123.852 19.99 125.112 19.5233 126.979 19.15C128.799 18.7767 131.856 18.4733 136.149 18.24V45.75ZM164.923 21.25C169.403 19.8967 172.553 19.22 174.373 19.22C176.986 19.22 178.293 20.1767 178.293 22.09V50.72C178.293 51.5133 178.689 51.91 179.483 51.91C181.489 51.91 183.379 51.6533 185.153 51.14C185.899 50.86 186.273 50.3933 186.273 49.74V21.25C190.846 19.8967 193.996 19.22 195.723 19.22C198.336 19.22 199.643 20.1767 199.643 22.09V48.9C199.596 49.88 199.643 50.58 199.783 51C199.969 51.3733 200.343 51.6067 200.903 51.7C201.463 51.84 202.443 51.91 203.843 51.91C207.063 51.91 210.213 51.4667 213.293 50.58L213.363 50.16C213.456 49.7867 213.503 49.53 213.503 49.39C213.503 49.0167 213.409 48.5733 213.223 48.06L208.393 48.2C208.019 48.2 207.809 47.9667 207.763 47.5C207.669 46.94 207.623 45.89 207.623 44.35V20.34C207.623 18.4267 207.086 17.0733 206.013 16.28C204.939 15.44 203.119 15.02 200.553 15.02C199.246 15.02 197.706 15.16 195.933 15.44C195.373 15.58 193.739 16 191.033 16.7C188.699 17.3067 186.996 17.7967 185.923 18.17C185.223 16.07 183.099 15.02 179.553 15.02C177.686 15.02 175.563 15.2767 173.183 15.79C171.083 16.2567 168.329 17.0033 164.923 18.03C164.969 17.05 164.899 16.3733 164.713 16C164.573 15.58 164.223 15.3233 163.663 15.23C163.103 15.09 162.123 15.02 160.723 15.02C157.503 15.02 154.353 15.4633 151.273 16.35C151.133 16.77 151.063 17.1667 151.063 17.54C151.063 18.1 151.156 18.5433 151.343 18.87L156.173 18.73C156.686 18.73 156.943 20.0133 156.943 22.58V50.72C156.943 51.5133 157.339 51.91 158.133 51.91C160.139 51.91 162.029 51.6533 163.803 51.14C164.549 50.86 164.923 50.3933 164.923 49.74V21.25ZM251.805 50.58C251.945 50.16 252.015 49.7633 252.015 49.39C252.015 48.83 251.922 48.3867 251.735 48.06L246.905 48.2C246.392 48.2 246.135 46.9167 246.135 44.35V20.13C246.135 18.31 245.552 17.0033 244.385 16.21C243.265 15.4167 241.445 15.02 238.925 15.02C231.132 15.02 224.272 15.9533 218.345 17.82C218.159 18.1467 218.065 18.6133 218.065 19.22C218.065 19.8267 218.182 20.41 218.415 20.97C219.489 20.6433 221.729 20.1533 225.135 19.5C229.055 18.8467 231.669 18.52 232.975 18.52C235.075 18.52 236.452 18.8 237.105 19.36C237.805 19.92 238.155 21.0867 238.155 22.86V28.32C233.489 28.5533 228.565 29.0667 223.385 29.86C221.239 30.3267 219.675 31.12 218.695 32.24C217.715 33.3133 217.225 34.83 217.225 36.79V46.59C217.225 48.55 217.762 49.9267 218.835 50.72C219.909 51.5133 221.729 51.91 224.295 51.91C228.169 51.91 232.789 51.14 238.155 49.6C238.155 50.3 238.249 50.79 238.435 51.07C238.622 51.3967 238.995 51.6067 239.555 51.7C240.162 51.84 241.095 51.91 242.355 51.91C245.669 51.91 248.819 51.4667 251.805 50.58ZM238.155 46.45C234.655 47.4767 231.809 47.99 229.615 47.99C226.675 47.99 225.205 46.94 225.205 44.84V37.07C225.205 35.4367 225.509 34.3867 226.115 33.92C226.955 33.22 228.542 32.66 230.875 32.24C233.162 31.82 235.589 31.5633 238.155 31.47V46.45ZM254.388 51.56C256.862 51.7933 260.292 51.91 264.678 51.91C268.272 51.91 271.188 51.42 273.428 50.44C275.715 49.4133 276.858 47.8967 276.858 45.89C276.858 44.0233 276.065 41.8067 274.478 39.24L264.678 23.77C263.932 22.6967 263.558 21.7633 263.558 20.97C263.558 19.1033 265.355 18.17 268.948 18.17C271.655 18.17 273.662 18.2633 274.968 18.45C275.202 17.8433 275.318 17.33 275.318 16.91C275.318 16.3967 275.178 15.86 274.898 15.3C273.358 15.1133 271.235 15.02 268.528 15.02C259.615 15.02 255.158 17.0033 255.158 20.97C255.158 22.1367 255.322 23.1633 255.648 24.05C255.975 24.9367 256.698 26.22 257.818 27.9L267.618 43.37C268.272 44.5833 268.598 45.4233 268.598 45.89C268.598 47.01 268.132 47.7567 267.198 48.13C266.218 48.55 264.538 48.76 262.158 48.76C258.472 48.76 255.858 48.6433 254.318 48.41C254.132 48.83 254.038 49.3433 254.038 49.95C254.038 50.5567 254.155 51.0933 254.388 51.56ZM299.252 50.58C299.392 50.16 299.462 49.7633 299.462 49.39C299.462 48.83 299.368 48.3867 299.182 48.06L294.352 48.2C293.838 48.2 293.582 46.9167 293.582 44.35V18.66L299.182 18.24C299.368 17.9133 299.462 17.4467 299.462 16.84C299.462 16.4667 299.345 15.8833 299.112 15.09L293.582 15.51V4.45C293.582 3.65666 293.185 3.26 292.392 3.26C290.385 3.26 288.495 3.51666 286.722 4.03C285.975 4.31 285.602 4.77667 285.602 5.43V16L280.422 16.35C280.235 16.6767 280.142 17.1433 280.142 17.75C280.142 18.1233 280.258 18.7067 280.492 19.5L285.602 19.15V48.9C285.555 49.88 285.602 50.58 285.742 51C285.928 51.3733 286.302 51.6067 286.862 51.7C287.422 51.84 288.402 51.91 289.802 51.91C293.022 51.91 296.172 51.4667 299.252 50.58ZM333.709 46.31C332.262 46.6833 329.929 47.1267 326.709 47.64C323.535 48.1533 321.015 48.41 319.149 48.41C317.049 48.41 315.649 48.13 314.949 47.57C314.295 47.01 313.969 45.8433 313.969 44.07V36.09C318.215 35.81 322.929 35.2733 328.109 34.48C330.255 34.0133 331.819 33.2433 332.799 32.17C333.779 31.05 334.269 29.51 334.269 27.55V22.58C334.269 20.5733 333.989 19.0333 333.429 17.96C332.869 16.8867 331.935 16.14 330.629 15.72C329.369 15.2533 327.549 15.02 325.169 15.02C318.449 15.02 313.595 15.58 310.609 16.7C307.529 17.8667 305.989 19.8967 305.989 22.79V46.8C305.989 48.62 306.549 49.9267 307.669 50.72C308.835 51.5133 310.679 51.91 313.199 51.91C320.665 51.91 327.525 51.0933 333.779 49.46C333.965 49.1333 334.059 48.6667 334.059 48.06C334.059 47.36 333.942 46.7767 333.709 46.31ZM313.969 23.07C313.875 21.2033 314.412 19.8967 315.579 19.15C316.745 18.3567 318.962 17.96 322.229 17.96C323.769 17.96 324.819 18.3333 325.379 19.08C325.985 19.78 326.289 21.11 326.289 23.07V27.34C326.289 28.8333 325.985 29.86 325.379 30.42C324.772 30.98 323.512 31.47 321.599 31.89C319.639 32.2633 317.095 32.59 313.969 32.87V23.07ZM343.272 18.73C343.786 18.73 344.042 20.0133 344.042 22.58V48.9C343.996 49.88 344.042 50.58 344.182 51C344.369 51.3733 344.742 51.6067 345.302 51.7C345.862 51.84 346.842 51.91 348.242 51.91C351.462 51.91 354.612 51.4667 357.692 50.58C357.832 50.16 357.902 49.7633 357.902 49.39C357.902 48.83 357.809 48.3867 357.622 48.06L352.792 48.2C352.279 48.2 352.022 46.9167 352.022 44.35V21.18C354.729 20.06 356.806 19.5 358.252 19.5C360.072 19.5 360.982 20.3633 360.982 22.09V27.9C360.982 28.6933 361.379 29.09 362.172 29.09C364.179 29.09 366.069 28.8333 367.842 28.32C368.589 28.04 368.962 27.5733 368.962 26.92V20.34C368.962 18.4267 368.426 17.0733 367.352 16.28C366.279 15.44 364.459 15.02 361.892 15.02C359.932 15.02 356.642 16.0233 352.022 18.03C352.069 17.05 351.999 16.3733 351.812 16C351.672 15.58 351.322 15.3233 350.762 15.23C350.202 15.09 349.222 15.02 347.822 15.02C344.602 15.02 341.452 15.4633 338.372 16.35C338.232 16.77 338.162 17.1667 338.162 17.54C338.162 18.1 338.256 18.5433 338.442 18.87L343.272 18.73Z" fill="#1D1D1F"/>
<path d="M36.0523 57.5C34.0523 59 2.55228 56.5 0.552285 54.5C-1.44772 52.5 2.55228 11.5 3.55228 10C4.55228 8.5 31.5523 6.5 32.5523 7.5C33.5523 8.5 38.0523 56 36.0523 57.5Z" fill="#1D1D1F"/>
<path d="M29.2622 19.08C29.4956 18.52 29.6122 18.0767 29.6122 17.75C29.6122 17.1433 29.4722 16.5367 29.1922 15.93C25.5056 15.3233 21.8189 15.02 18.1322 15.02C14.0256 15.02 10.4556 15.44 7.42225 16.28C7.14225 16.8867 7.00225 17.4933 7.00225 18.1C7.00225 18.7533 7.14225 19.4067 7.42225 20.06C10.7356 19.36 14.3756 18.9633 18.3422 18.87L20.7222 18.94L6.30225 47.92C6.06891 48.48 5.95225 48.9 5.95225 49.18C5.95225 49.7867 6.13891 50.4167 6.51225 51.07C9.77891 51.6767 13.0222 51.98 16.2422 51.98C21.1422 51.98 25.9956 51.4433 30.8022 50.37C31.0822 49.81 31.2222 49.2267 31.2222 48.62C31.2222 47.92 31.0356 47.15 30.6622 46.31C26.5089 47.2433 21.4922 47.7567 15.6122 47.85H14.7022L29.2622 19.08Z" fill="white"/>
</svg>
